<mxfile host="app.diagrams.net" modified="2022-05-25T21:27:09.552Z" agent="5.0 (Windows NT 10.0; Win64; x64) AppleWebKit/537.36 (KHTML, like Gecko) Chrome/100.0.4896.143 YaBrowser/22.5.0.1814 Yowser/2.5 Safari/537.36" etag="Gd8pRL3wljsK3RX9j40s" version="18.1.2" type="github">
  <diagram id="C5RBs43oDa-KdzZeNtuy" name="Page-1">
    <mxGraphModel dx="1033" dy="567" grid="1" gridSize="10" guides="1" tooltips="1" connect="1" arrows="1" fold="1" page="1" pageScale="1" pageWidth="827" pageHeight="1169" math="0" shadow="0">
      <root>
        <mxCell id="WIyWlLk6GJQsqaUBKTNV-0" />
        <mxCell id="WIyWlLk6GJQsqaUBKTNV-1" parent="WIyWlLk6GJQsqaUBKTNV-0" />
        <mxCell id="F8lcZqzjHK9TLfIAo0Zg-9" style="edgeStyle=orthogonalEdgeStyle;rounded=0;orthogonalLoop=1;jettySize=auto;html=1;entryX=0;entryY=0.5;entryDx=0;entryDy=0;" edge="1" parent="WIyWlLk6GJQsqaUBKTNV-1" source="F8lcZqzjHK9TLfIAo0Zg-0" target="F8lcZqzjHK9TLfIAo0Zg-39">
          <mxGeometry relative="1" as="geometry">
            <mxPoint x="530" y="85" as="targetPoint" />
            <Array as="points">
              <mxPoint x="440" y="80" />
              <mxPoint x="550" y="80" />
            </Array>
          </mxGeometry>
        </mxCell>
        <mxCell id="F8lcZqzjHK9TLfIAo0Zg-10" style="edgeStyle=orthogonalEdgeStyle;rounded=0;orthogonalLoop=1;jettySize=auto;html=1;" edge="1" parent="WIyWlLk6GJQsqaUBKTNV-1" source="F8lcZqzjHK9TLfIAo0Zg-0">
          <mxGeometry relative="1" as="geometry">
            <mxPoint x="330" y="80" as="targetPoint" />
            <Array as="points">
              <mxPoint x="400" y="80" />
            </Array>
          </mxGeometry>
        </mxCell>
        <mxCell id="F8lcZqzjHK9TLfIAo0Zg-11" style="edgeStyle=orthogonalEdgeStyle;rounded=0;orthogonalLoop=1;jettySize=auto;html=1;exitX=-0.01;exitY=0.87;exitDx=0;exitDy=0;exitPerimeter=0;" edge="1" parent="WIyWlLk6GJQsqaUBKTNV-1" source="F8lcZqzjHK9TLfIAo0Zg-0">
          <mxGeometry relative="1" as="geometry">
            <mxPoint x="110" y="300" as="targetPoint" />
          </mxGeometry>
        </mxCell>
        <mxCell id="F8lcZqzjHK9TLfIAo0Zg-12" style="edgeStyle=orthogonalEdgeStyle;rounded=0;orthogonalLoop=1;jettySize=auto;html=1;exitX=0.333;exitY=1;exitDx=0;exitDy=0;exitPerimeter=0;" edge="1" parent="WIyWlLk6GJQsqaUBKTNV-1" source="F8lcZqzjHK9TLfIAo0Zg-0">
          <mxGeometry relative="1" as="geometry">
            <mxPoint x="340" y="310" as="targetPoint" />
            <Array as="points">
              <mxPoint x="380" y="310" />
              <mxPoint x="340" y="310" />
            </Array>
          </mxGeometry>
        </mxCell>
        <mxCell id="F8lcZqzjHK9TLfIAo0Zg-13" style="edgeStyle=orthogonalEdgeStyle;rounded=0;orthogonalLoop=1;jettySize=auto;html=1;exitX=0.75;exitY=1;exitDx=0;exitDy=0;" edge="1" parent="WIyWlLk6GJQsqaUBKTNV-1">
          <mxGeometry relative="1" as="geometry">
            <mxPoint x="438" y="190" as="sourcePoint" />
            <mxPoint x="468" y="310" as="targetPoint" />
            <Array as="points">
              <mxPoint x="438" y="310" />
            </Array>
          </mxGeometry>
        </mxCell>
        <mxCell id="F8lcZqzjHK9TLfIAo0Zg-14" style="edgeStyle=orthogonalEdgeStyle;rounded=0;orthogonalLoop=1;jettySize=auto;html=1;exitX=0.997;exitY=0.87;exitDx=0;exitDy=0;exitPerimeter=0;" edge="1" parent="WIyWlLk6GJQsqaUBKTNV-1" source="F8lcZqzjHK9TLfIAo0Zg-0">
          <mxGeometry relative="1" as="geometry">
            <mxPoint x="450" y="190" as="sourcePoint" />
            <mxPoint x="690" y="300" as="targetPoint" />
          </mxGeometry>
        </mxCell>
        <mxCell id="F8lcZqzjHK9TLfIAo0Zg-0" value="Администратор магазина" style="rounded=0;whiteSpace=wrap;html=1;" vertex="1" parent="WIyWlLk6GJQsqaUBKTNV-1">
          <mxGeometry x="340" y="130" width="120" height="60" as="geometry" />
        </mxCell>
        <mxCell id="F8lcZqzjHK9TLfIAo0Zg-15" style="edgeStyle=orthogonalEdgeStyle;rounded=0;orthogonalLoop=1;jettySize=auto;html=1;exitX=0.5;exitY=1;exitDx=0;exitDy=0;" edge="1" parent="WIyWlLk6GJQsqaUBKTNV-1">
          <mxGeometry relative="1" as="geometry">
            <mxPoint x="690" y="360" as="sourcePoint" />
            <mxPoint x="690" y="360" as="targetPoint" />
          </mxGeometry>
        </mxCell>
        <mxCell id="F8lcZqzjHK9TLfIAo0Zg-28" value="" style="edgeStyle=orthogonalEdgeStyle;rounded=0;orthogonalLoop=1;jettySize=auto;html=1;" edge="1" parent="WIyWlLk6GJQsqaUBKTNV-1">
          <mxGeometry relative="1" as="geometry">
            <mxPoint x="110" y="470" as="sourcePoint" />
            <mxPoint x="110" y="410" as="targetPoint" />
          </mxGeometry>
        </mxCell>
        <mxCell id="F8lcZqzjHK9TLfIAo0Zg-31" value="" style="endArrow=none;html=1;rounded=0;fontSize=14;" edge="1" parent="WIyWlLk6GJQsqaUBKTNV-1">
          <mxGeometry width="50" height="50" relative="1" as="geometry">
            <mxPoint x="530" y="100" as="sourcePoint" />
            <mxPoint x="530" y="100" as="targetPoint" />
          </mxGeometry>
        </mxCell>
        <mxCell id="F8lcZqzjHK9TLfIAo0Zg-32" value="" style="endArrow=none;html=1;rounded=0;fontSize=14;" edge="1" parent="WIyWlLk6GJQsqaUBKTNV-1">
          <mxGeometry width="50" height="50" relative="1" as="geometry">
            <mxPoint x="530" y="100" as="sourcePoint" />
            <mxPoint x="530" y="100" as="targetPoint" />
          </mxGeometry>
        </mxCell>
        <mxCell id="F8lcZqzjHK9TLfIAo0Zg-44" value="" style="edgeStyle=orthogonalEdgeStyle;rounded=0;orthogonalLoop=1;jettySize=auto;html=1;fontSize=14;" edge="1" parent="WIyWlLk6GJQsqaUBKTNV-1" source="F8lcZqzjHK9TLfIAo0Zg-34">
          <mxGeometry relative="1" as="geometry">
            <mxPoint x="710" y="83" as="targetPoint" />
          </mxGeometry>
        </mxCell>
        <mxCell id="F8lcZqzjHK9TLfIAo0Zg-34" value="2" style="swimlane;fontSize=14;" vertex="1" parent="WIyWlLk6GJQsqaUBKTNV-1">
          <mxGeometry x="750" y="32" width="160" height="101" as="geometry" />
        </mxCell>
        <mxCell id="F8lcZqzjHK9TLfIAo0Zg-37" value="&lt;span style=&quot;font-size: 12px;&quot;&gt;Данные о животных&lt;br&gt;&amp;nbsp;поступают из таблицы&lt;/span&gt;" style="text;html=1;align=center;verticalAlign=middle;resizable=0;points=[];autosize=1;strokeColor=none;fillColor=none;fontSize=14;" vertex="1" parent="F8lcZqzjHK9TLfIAo0Zg-34">
          <mxGeometry x="10" y="38" width="140" height="40" as="geometry" />
        </mxCell>
        <mxCell id="F8lcZqzjHK9TLfIAo0Zg-39" value="1" style="swimlane;fontSize=14;" vertex="1" parent="WIyWlLk6GJQsqaUBKTNV-1">
          <mxGeometry x="560" y="30" width="150" height="100" as="geometry" />
        </mxCell>
        <mxCell id="F8lcZqzjHK9TLfIAo0Zg-40" value="&lt;span style=&quot;font-size: 12px;&quot;&gt;Просмотр&lt;/span&gt;&lt;br style=&quot;font-size: 12px;&quot;&gt;&lt;span style=&quot;font-size: 12px;&quot;&gt;списка животных&lt;/span&gt;" style="text;html=1;align=center;verticalAlign=middle;resizable=0;points=[];autosize=1;strokeColor=none;fillColor=none;fontSize=14;" vertex="1" parent="F8lcZqzjHK9TLfIAo0Zg-39">
          <mxGeometry x="15" y="40" width="110" height="40" as="geometry" />
        </mxCell>
        <mxCell id="F8lcZqzjHK9TLfIAo0Zg-42" value="1" style="swimlane;fontSize=14;" vertex="1" parent="WIyWlLk6GJQsqaUBKTNV-1">
          <mxGeometry x="200" y="20" width="130" height="100" as="geometry" />
        </mxCell>
        <mxCell id="F8lcZqzjHK9TLfIAo0Zg-43" value="&lt;span style=&quot;font-size: 12px;&quot;&gt;&amp;nbsp; &amp;nbsp; &amp;nbsp; Просмотр списка &lt;br&gt;сотрудников&lt;/span&gt;" style="text;html=1;align=center;verticalAlign=middle;resizable=0;points=[];autosize=1;strokeColor=none;fillColor=none;fontSize=14;" vertex="1" parent="F8lcZqzjHK9TLfIAo0Zg-42">
          <mxGeometry x="-10" y="40" width="130" height="40" as="geometry" />
        </mxCell>
        <mxCell id="F8lcZqzjHK9TLfIAo0Zg-45" value="2r" style="swimlane;fontSize=14;" vertex="1" parent="WIyWlLk6GJQsqaUBKTNV-1">
          <mxGeometry x="10" y="20" width="140" height="90" as="geometry" />
        </mxCell>
        <mxCell id="F8lcZqzjHK9TLfIAo0Zg-46" value="&lt;span style=&quot;font-size: 12px;&quot;&gt;Данные о сотрудниках &lt;br&gt;поступают из таблицы&lt;/span&gt;" style="text;html=1;align=center;verticalAlign=middle;resizable=0;points=[];autosize=1;strokeColor=none;fillColor=none;fontSize=14;" vertex="1" parent="F8lcZqzjHK9TLfIAo0Zg-45">
          <mxGeometry y="40" width="140" height="40" as="geometry" />
        </mxCell>
        <mxCell id="F8lcZqzjHK9TLfIAo0Zg-49" value="" style="edgeStyle=orthogonalEdgeStyle;rounded=0;orthogonalLoop=1;jettySize=auto;html=1;fontSize=14;exitX=1.019;exitY=0.595;exitDx=0;exitDy=0;exitPerimeter=0;" edge="1" parent="WIyWlLk6GJQsqaUBKTNV-1" source="F8lcZqzjHK9TLfIAo0Zg-46">
          <mxGeometry relative="1" as="geometry">
            <mxPoint x="160" y="80" as="sourcePoint" />
            <mxPoint x="200" y="80" as="targetPoint" />
            <Array as="points">
              <mxPoint x="153" y="80" />
            </Array>
          </mxGeometry>
        </mxCell>
        <mxCell id="F8lcZqzjHK9TLfIAo0Zg-51" value="1" style="swimlane;fontSize=14;" vertex="1" parent="WIyWlLk6GJQsqaUBKTNV-1">
          <mxGeometry x="470" y="255" width="140" height="105" as="geometry" />
        </mxCell>
        <mxCell id="F8lcZqzjHK9TLfIAo0Zg-52" value="&lt;span style=&quot;font-size: 12px;&quot;&gt;&amp;nbsp;Просмотр списка &lt;br&gt;&amp;nbsp; постоянных клиентов&lt;/span&gt;" style="text;html=1;align=center;verticalAlign=middle;resizable=0;points=[];autosize=1;strokeColor=none;fillColor=none;fontSize=14;" vertex="1" parent="WIyWlLk6GJQsqaUBKTNV-1">
          <mxGeometry x="460" y="290" width="140" height="40" as="geometry" />
        </mxCell>
        <mxCell id="F8lcZqzjHK9TLfIAo0Zg-55" value="" style="edgeStyle=orthogonalEdgeStyle;rounded=0;orthogonalLoop=1;jettySize=auto;html=1;fontSize=14;" edge="1" parent="WIyWlLk6GJQsqaUBKTNV-1" source="F8lcZqzjHK9TLfIAo0Zg-53">
          <mxGeometry relative="1" as="geometry">
            <mxPoint x="530" y="360" as="targetPoint" />
          </mxGeometry>
        </mxCell>
        <mxCell id="F8lcZqzjHK9TLfIAo0Zg-53" value="2" style="swimlane;fontSize=14;startSize=20;" vertex="1" parent="WIyWlLk6GJQsqaUBKTNV-1">
          <mxGeometry x="460" y="400" width="140" height="120" as="geometry" />
        </mxCell>
        <mxCell id="F8lcZqzjHK9TLfIAo0Zg-54" value="&lt;span style=&quot;font-size: 12px;&quot;&gt;Данные о постоянных&lt;br&gt;&amp;nbsp;клиентах &lt;br&gt;поступают&lt;br&gt;&amp;nbsp;из таблицы&lt;/span&gt;" style="text;html=1;align=center;verticalAlign=middle;resizable=0;points=[];autosize=1;strokeColor=none;fillColor=none;fontSize=14;" vertex="1" parent="F8lcZqzjHK9TLfIAo0Zg-53">
          <mxGeometry y="30" width="140" height="70" as="geometry" />
        </mxCell>
        <mxCell id="F8lcZqzjHK9TLfIAo0Zg-56" value="1" style="swimlane;fontSize=14;" vertex="1" parent="WIyWlLk6GJQsqaUBKTNV-1">
          <mxGeometry x="630" y="300" width="140" height="110" as="geometry" />
        </mxCell>
        <mxCell id="F8lcZqzjHK9TLfIAo0Zg-57" value="&lt;span style=&quot;font-size: 12px;&quot;&gt;Просмотр списка&lt;br&gt;&amp;nbsp;поставщиков&lt;/span&gt;" style="text;html=1;align=center;verticalAlign=middle;resizable=0;points=[];autosize=1;strokeColor=none;fillColor=none;fontSize=14;" vertex="1" parent="F8lcZqzjHK9TLfIAo0Zg-56">
          <mxGeometry x="10" y="40" width="110" height="40" as="geometry" />
        </mxCell>
        <mxCell id="F8lcZqzjHK9TLfIAo0Zg-63" value="" style="edgeStyle=orthogonalEdgeStyle;rounded=0;orthogonalLoop=1;jettySize=auto;html=1;fontSize=14;" edge="1" parent="WIyWlLk6GJQsqaUBKTNV-1" source="F8lcZqzjHK9TLfIAo0Zg-58">
          <mxGeometry relative="1" as="geometry">
            <mxPoint x="701" y="410" as="targetPoint" />
          </mxGeometry>
        </mxCell>
        <mxCell id="F8lcZqzjHK9TLfIAo0Zg-58" value="2" style="swimlane;fontSize=14;" vertex="1" parent="WIyWlLk6GJQsqaUBKTNV-1">
          <mxGeometry x="630" y="450" width="143" height="110" as="geometry" />
        </mxCell>
        <mxCell id="F8lcZqzjHK9TLfIAo0Zg-60" value="&lt;span style=&quot;font-size: 12px;&quot;&gt;Данные о поставщиках &lt;br&gt;поступают из таблицы&lt;/span&gt;" style="text;html=1;align=center;verticalAlign=middle;resizable=0;points=[];autosize=1;strokeColor=none;fillColor=none;fontSize=14;" vertex="1" parent="F8lcZqzjHK9TLfIAo0Zg-58">
          <mxGeometry y="45" width="140" height="40" as="geometry" />
        </mxCell>
        <mxCell id="F8lcZqzjHK9TLfIAo0Zg-64" value="1" style="swimlane;fontSize=14;" vertex="1" parent="WIyWlLk6GJQsqaUBKTNV-1">
          <mxGeometry x="210" y="250" width="132.5" height="85" as="geometry" />
        </mxCell>
        <mxCell id="F8lcZqzjHK9TLfIAo0Zg-66" value="&lt;font style=&quot;font-size: 12px;&quot;&gt;Просмотр списка &lt;br&gt;продаж&lt;/font&gt;" style="text;html=1;align=center;verticalAlign=middle;resizable=0;points=[];autosize=1;strokeColor=none;fillColor=none;fontSize=14;" vertex="1" parent="F8lcZqzjHK9TLfIAo0Zg-64">
          <mxGeometry x="22.5" y="30" width="110" height="40" as="geometry" />
        </mxCell>
        <mxCell id="F8lcZqzjHK9TLfIAo0Zg-73" value="" style="edgeStyle=orthogonalEdgeStyle;rounded=0;orthogonalLoop=1;jettySize=auto;html=1;fontSize=12;" edge="1" parent="WIyWlLk6GJQsqaUBKTNV-1" source="F8lcZqzjHK9TLfIAo0Zg-67">
          <mxGeometry relative="1" as="geometry">
            <mxPoint x="285" y="340" as="targetPoint" />
          </mxGeometry>
        </mxCell>
        <mxCell id="F8lcZqzjHK9TLfIAo0Zg-75" value="" style="edgeStyle=orthogonalEdgeStyle;rounded=0;orthogonalLoop=1;jettySize=auto;html=1;fontSize=12;" edge="1" parent="WIyWlLk6GJQsqaUBKTNV-1" source="F8lcZqzjHK9TLfIAo0Zg-67">
          <mxGeometry relative="1" as="geometry">
            <mxPoint x="180" y="490" as="targetPoint" />
          </mxGeometry>
        </mxCell>
        <mxCell id="F8lcZqzjHK9TLfIAo0Zg-67" value="2" style="swimlane;fontSize=12;" vertex="1" parent="WIyWlLk6GJQsqaUBKTNV-1">
          <mxGeometry x="230" y="410" width="150" height="110" as="geometry" />
        </mxCell>
        <mxCell id="F8lcZqzjHK9TLfIAo0Zg-68" value="&lt;br style=&quot;&quot;&gt;&lt;span style=&quot;&quot;&gt;Данные о продажах &lt;br&gt;поступают из таблицы&lt;/span&gt;" style="text;html=1;align=center;verticalAlign=middle;resizable=0;points=[];autosize=1;strokeColor=none;fillColor=none;fontSize=12;" vertex="1" parent="F8lcZqzjHK9TLfIAo0Zg-67">
          <mxGeometry x="10" y="30" width="140" height="50" as="geometry" />
        </mxCell>
        <mxCell id="F8lcZqzjHK9TLfIAo0Zg-69" value="1" style="swimlane;fontSize=12;" vertex="1" parent="WIyWlLk6GJQsqaUBKTNV-1">
          <mxGeometry x="50" y="300" width="130" height="110" as="geometry" />
        </mxCell>
        <mxCell id="F8lcZqzjHK9TLfIAo0Zg-70" value="&lt;span style=&quot;&quot;&gt;Просмотр списка&lt;/span&gt;&lt;br style=&quot;&quot;&gt;&lt;span style=&quot;&quot;&gt;поставок&lt;/span&gt;" style="text;html=1;align=center;verticalAlign=middle;resizable=0;points=[];autosize=1;strokeColor=none;fillColor=none;fontSize=12;" vertex="1" parent="WIyWlLk6GJQsqaUBKTNV-1">
          <mxGeometry x="65" y="345" width="110" height="30" as="geometry" />
        </mxCell>
        <mxCell id="F8lcZqzjHK9TLfIAo0Zg-71" value="2" style="swimlane;fontSize=12;" vertex="1" parent="WIyWlLk6GJQsqaUBKTNV-1">
          <mxGeometry x="45" y="460" width="135" height="90" as="geometry" />
        </mxCell>
        <mxCell id="F8lcZqzjHK9TLfIAo0Zg-72" value="&lt;span style=&quot;&quot;&gt;Данные о поставках&lt;br&gt;&amp;nbsp;поступают из таблицы&lt;/span&gt;" style="text;html=1;align=center;verticalAlign=middle;resizable=0;points=[];autosize=1;strokeColor=none;fillColor=none;fontSize=12;" vertex="1" parent="F8lcZqzjHK9TLfIAo0Zg-71">
          <mxGeometry x="-5" y="40" width="140" height="30" as="geometry" />
        </mxCell>
        <mxCell id="F8lcZqzjHK9TLfIAo0Zg-76" value="Действие" style="text;html=1;align=center;verticalAlign=middle;resizable=0;points=[];autosize=1;strokeColor=none;fillColor=none;fontSize=12;" vertex="1" parent="WIyWlLk6GJQsqaUBKTNV-1">
          <mxGeometry x="225" y="160" width="70" height="20" as="geometry" />
        </mxCell>
        <mxCell id="F8lcZqzjHK9TLfIAo0Zg-77" value="Действие" style="text;html=1;align=center;verticalAlign=middle;resizable=0;points=[];autosize=1;strokeColor=none;fillColor=none;fontSize=12;" vertex="1" parent="WIyWlLk6GJQsqaUBKTNV-1">
          <mxGeometry x="490" y="160" width="70" height="20" as="geometry" />
        </mxCell>
      </root>
    </mxGraphModel>
  </diagram>
</mxfile>
